G04 EAGLE Gerber RS-274X export*
G75*
%MOMM*%
%FSLAX34Y34*%
%LPD*%
%INSolder stop mask CMP*%
%IPPOS*%
%AMOC8*
5,1,8,0,0,1.08239X$1,22.5*%
G01*
%ADD10C,2.203200*%
%ADD11C,1.727200*%
%ADD12C,2.082800*%
%ADD13C,1.854200*%
%ADD14P,1.951982X8X22.500000*%
%ADD15C,1.803400*%
%ADD16P,1.649562X8X202.500000*%
%ADD17C,2.133600*%


D10*
X20320Y541020D03*
X340360Y541020D03*
X340360Y34290D03*
X20320Y34290D03*
D11*
X162560Y271780D02*
X162560Y287020D01*
X187960Y287020D02*
X187960Y271780D01*
X213360Y271780D02*
X213360Y287020D01*
D12*
X171450Y236220D03*
X171450Y160020D03*
D13*
X170180Y127870D03*
X170180Y77870D03*
D14*
X102870Y64770D03*
D15*
X77470Y64770D03*
D14*
X102870Y280670D03*
D15*
X77470Y280670D03*
D12*
X294640Y127000D03*
X294640Y101600D03*
X294640Y76200D03*
X215900Y52070D03*
X215900Y128270D03*
X214630Y160020D03*
X214630Y236220D03*
X308610Y252730D03*
X308610Y227330D03*
X308610Y201930D03*
X308610Y176530D03*
X179070Y528320D03*
X204470Y528320D03*
X308610Y508000D03*
X308610Y482600D03*
X308610Y457200D03*
X308610Y431800D03*
D16*
X256540Y530860D03*
X231140Y530860D03*
D12*
X257810Y487680D03*
X181610Y487680D03*
X308610Y382270D03*
X308610Y356870D03*
X308610Y331470D03*
X308610Y306070D03*
X327660Y127000D03*
X327660Y101600D03*
X327660Y76200D03*
X59690Y528320D03*
X85090Y528320D03*
X110490Y528320D03*
D17*
X29210Y433070D03*
X29210Y407670D03*
X29210Y382270D03*
X29210Y356870D03*
X29210Y331470D03*
X29210Y306070D03*
X29210Y280670D03*
X29210Y255270D03*
X29210Y229870D03*
X29210Y204470D03*
X29210Y179070D03*
X29210Y153670D03*
X29210Y128270D03*
X29210Y102870D03*
X29210Y77470D03*
X257810Y433070D03*
X257810Y407670D03*
X257810Y382270D03*
X257810Y356870D03*
X257810Y331470D03*
X257810Y306070D03*
X257810Y280670D03*
X257810Y255270D03*
X257810Y229870D03*
X257810Y204470D03*
X257810Y179070D03*
X257810Y153670D03*
X257810Y128270D03*
X257810Y102870D03*
X257810Y77470D03*
M02*
