solid Smog_buster_v1_354
facet normal -1.0 0.0 0.0
  outer loop
    vertex 51.55527131222115 79.77957113017547 0.9999999999999999
    vertex 51.55527131222115 74.77957113017546 1.762479051592436e-15
    vertex 51.55527131222115 74.77957113017546 0.9999999999999999
  endloop
endfacet
facet normal -1.0 0.0 0.0
  outer loop
    vertex 51.55527131222115 74.77957113017546 1.762479051592436e-15
    vertex 51.55527131222115 79.77957113017547 0.9999999999999999
    vertex 51.55527131222115 79.77957113017547 0.0
  endloop
endfacet
facet normal -1.0 0.0 0.0
  outer loop
    vertex 53.555271312221144 74.77957113017546 0.9999999999999999
    vertex 53.555271312221144 64.77957113017546 1.762479051592436e-15
    vertex 53.555271312221144 64.77957113017546 0.9999999999999999
  endloop
endfacet
facet normal -1.0 0.0 0.0
  outer loop
    vertex 53.555271312221144 64.77957113017546 1.762479051592436e-15
    vertex 53.555271312221144 74.77957113017546 0.9999999999999999
    vertex 53.555271312221144 74.77957113017546 1.762479051592436e-15
  endloop
endfacet
facet normal -1.0 0.0 0.0
  outer loop
    vertex 51.55527131222115 64.77957113017546 0.9999999999999999
    vertex 51.55527131222115 59.77957113017547 0.0
    vertex 51.55527131222115 59.77957113017547 0.9999999999999999
  endloop
endfacet
facet normal -1.0 0.0 0.0
  outer loop
    vertex 51.55527131222115 59.77957113017547 0.0
    vertex 51.55527131222115 64.77957113017546 0.9999999999999999
    vertex 51.55527131222115 64.77957113017546 1.762479051592436e-15
  endloop
endfacet
facet normal -0.0 -1.0 -0.0
  outer loop
    vertex 56.55527131222115 59.77957113017547 0.9999999999999999
    vertex 51.55527131222115 59.77957113017547 0.0
    vertex 56.55527131222115 59.77957113017547 0.0
  endloop
endfacet
facet normal -0.0 -1.0 -0.0
  outer loop
    vertex 51.55527131222115 59.77957113017547 0.0
    vertex 56.55527131222115 59.77957113017547 0.9999999999999999
    vertex 51.55527131222115 59.77957113017547 0.9999999999999999
  endloop
endfacet
facet normal 1.0 0.0 0.0
  outer loop
    vertex 56.55527131222115 79.77957113017547 0.0
    vertex 56.55527131222115 59.77957113017547 0.9999999999999999
    vertex 56.55527131222115 59.77957113017547 0.0
  endloop
endfacet
facet normal 1.0 0.0 0.0
  outer loop
    vertex 56.55527131222115 59.77957113017547 0.9999999999999999
    vertex 56.55527131222115 79.77957113017547 0.0
    vertex 56.55527131222115 79.77957113017547 0.9999999999999999
  endloop
endfacet
facet normal 0.0 1.0 0.0
  outer loop
    vertex 51.55527131222115 79.77957113017547 0.9999999999999999
    vertex 56.55527131222115 79.77957113017547 0.0
    vertex 51.55527131222115 79.77957113017547 0.0
  endloop
endfacet
facet normal 0.0 1.0 0.0
  outer loop
    vertex 56.55527131222115 79.77957113017547 0.0
    vertex 51.55527131222115 79.77957113017547 0.9999999999999999
    vertex 56.55527131222115 79.77957113017547 0.9999999999999999
  endloop
endfacet
facet normal 0.0 -1.0 0.0
  outer loop
    vertex 53.555271312221144 74.77957113017546 0.9999999999999999
    vertex 51.55527131222115 74.77957113017546 1.762479051592436e-15
    vertex 53.555271312221144 74.77957113017546 1.762479051592436e-15
  endloop
endfacet
facet normal 0.0 -1.0 0.0
  outer loop
    vertex 51.55527131222115 74.77957113017546 1.762479051592436e-15
    vertex 53.555271312221144 74.77957113017546 0.9999999999999999
    vertex 51.55527131222115 74.77957113017546 0.9999999999999999
  endloop
endfacet
facet normal 0.0 1.0 0.0
  outer loop
    vertex 51.55527131222115 64.77957113017546 0.9999999999999999
    vertex 53.555271312221144 64.77957113017546 1.762479051592436e-15
    vertex 51.55527131222115 64.77957113017546 1.762479051592436e-15
  endloop
endfacet
facet normal 0.0 1.0 0.0
  outer loop
    vertex 53.555271312221144 64.77957113017546 1.762479051592436e-15
    vertex 51.55527131222115 64.77957113017546 0.9999999999999999
    vertex 53.555271312221144 64.77957113017546 0.9999999999999999
  endloop
endfacet
facet normal 0.0 0.0 1.0
  outer loop
    vertex 53.45527131222115 62.27957113017546 0.9999999999999999
    vertex 53.555271312221144 64.77957113017546 0.9999999999999999
    vertex 51.55527131222115 64.77957113017546 0.9999999999999999
  endloop
endfacet
facet normal 0.0 0.0 1.0
  outer loop
    vertex 53.555271312221144 64.77957113017546 0.9999999999999999
    vertex 53.45527131222115 62.27957113017546 0.9999999999999999
    vertex 53.4757158164477 62.43486255723697 0.9999999999999999
  endloop
endfacet
facet normal 0.0 0.0 1.0
  outer loop
    vertex 53.555271312221144 64.77957113017546 0.9999999999999999
    vertex 53.4757158164477 62.43486255723697 0.9999999999999999
    vertex 53.535656069950484 62.57957113017546 0.9999999999999999
  endloop
endfacet
facet normal 0.0 0.0 1.0
  outer loop
    vertex 53.555271312221144 64.77957113017546 0.9999999999999999
    vertex 53.535656069950484 62.57957113017546 0.9999999999999999
    vertex 53.63100724350922 62.7038351988874 0.9999999999999999
  endloop
endfacet
facet normal 0.0 0.0 1.0
  outer loop
    vertex 53.555271312221144 64.77957113017546 0.9999999999999999
    vertex 53.63100724350922 62.7038351988874 0.9999999999999999
    vertex 53.555271312221144 74.77957113017546 0.9999999999999999
  endloop
endfacet
facet normal 0.0 0.0 1.0
  outer loop
    vertex 51.55527131222115 59.77957113017547 0.9999999999999999
    vertex 53.535656069950484 61.979571130175465 0.9999999999999999
    vertex 51.55527131222115 64.77957113017546 0.9999999999999999
  endloop
endfacet
facet normal 0.0 0.0 1.0
  outer loop
    vertex 53.535656069950484 61.979571130175465 0.9999999999999999
    vertex 51.55527131222115 59.77957113017547 0.9999999999999999
    vertex 53.63100724350922 61.85530706146353 0.9999999999999999
  endloop
endfacet
facet normal 0.0 0.0 1.0
  outer loop
    vertex 53.63100724350922 61.85530706146353 0.9999999999999999
    vertex 51.55527131222115 59.77957113017547 0.9999999999999999
    vertex 53.75527131222115 61.7599558879048 0.9999999999999999
  endloop
endfacet
facet normal 0.0 0.0 1.0
  outer loop
    vertex 53.75527131222115 61.7599558879048 0.9999999999999999
    vertex 51.55527131222115 59.77957113017547 0.9999999999999999
    vertex 56.55527131222115 59.77957113017547 0.9999999999999999
  endloop
endfacet
facet normal 0.0 0.0 1.0
  outer loop
    vertex 51.55527131222115 64.77957113017546 0.9999999999999999
    vertex 53.535656069950484 61.979571130175465 0.9999999999999999
    vertex 53.4757158164477 62.124279703113956 0.9999999999999999
  endloop
endfacet
facet normal 0.0 0.0 1.0
  outer loop
    vertex 51.55527131222115 64.77957113017546 0.9999999999999999
    vertex 53.4757158164477 62.124279703113956 0.9999999999999999
    vertex 53.45527131222115 62.27957113017546 0.9999999999999999
  endloop
endfacet
facet normal 0.0 0.0 1.0
  outer loop
    vertex 53.75527131222115 61.7599558879048 0.9999999999999999
    vertex 56.55527131222115 59.77957113017547 0.9999999999999999
    vertex 53.89997988515964 61.70001563440202 0.9999999999999999
  endloop
endfacet
facet normal 0.0 0.0 1.0
  outer loop
    vertex 53.89997988515964 61.70001563440202 0.9999999999999999
    vertex 56.55527131222115 59.77957113017547 0.9999999999999999
    vertex 54.055271312221144 61.67957113017546 0.9999999999999999
  endloop
endfacet
facet normal 0.0 0.0 1.0
  outer loop
    vertex 54.055271312221144 61.67957113017546 0.9999999999999999
    vertex 56.55527131222115 59.77957113017547 0.9999999999999999
    vertex 54.21056273928266 61.70001563440202 0.9999999999999999
  endloop
endfacet
facet normal 0.0 0.0 1.0
  outer loop
    vertex 54.21056273928266 61.70001563440202 0.9999999999999999
    vertex 56.55527131222115 59.77957113017547 0.9999999999999999
    vertex 54.35527131222114 61.7599558879048 0.9999999999999999
  endloop
endfacet
facet normal 0.0 0.0 1.0
  outer loop
    vertex 54.35527131222114 61.7599558879048 0.9999999999999999
    vertex 56.55527131222115 59.77957113017547 0.9999999999999999
    vertex 54.47953538093308 61.85530706146353 0.9999999999999999
  endloop
endfacet
facet normal 0.0 0.0 1.0
  outer loop
    vertex 54.47953538093308 61.85530706146353 0.9999999999999999
    vertex 56.55527131222115 59.77957113017547 0.9999999999999999
    vertex 54.574886554491805 61.979571130175465 0.9999999999999999
  endloop
endfacet
facet normal 0.0 0.0 1.0
  outer loop
    vertex 54.574886554491805 61.979571130175465 0.9999999999999999
    vertex 56.55527131222115 59.77957113017547 0.9999999999999999
    vertex 54.634826807994585 62.124279703113956 0.9999999999999999
  endloop
endfacet
facet normal 0.0 0.0 1.0
  outer loop
    vertex 54.634826807994585 62.124279703113956 0.9999999999999999
    vertex 56.55527131222115 59.77957113017547 0.9999999999999999
    vertex 54.655271312221146 62.27957113017546 0.9999999999999999
  endloop
endfacet
facet normal 0.0 0.0 1.0
  outer loop
    vertex 54.655271312221146 62.27957113017546 0.9999999999999999
    vertex 56.55527131222115 59.77957113017547 0.9999999999999999
    vertex 54.655271312221146 77.27957113017547 0.9999999999999999
  endloop
endfacet
facet normal 0.0 0.0 1.0
  outer loop
    vertex 51.55527131222115 79.77957113017547 0.9999999999999999
    vertex 53.75527131222115 77.79918637244613 0.9999999999999999
    vertex 56.55527131222115 79.77957113017547 0.9999999999999999
  endloop
endfacet
facet normal 0.0 0.0 1.0
  outer loop
    vertex 53.75527131222115 77.79918637244613 0.9999999999999999
    vertex 51.55527131222115 79.77957113017547 0.9999999999999999
    vertex 53.63100724350922 77.70383519888739 0.9999999999999999
  endloop
endfacet
facet normal 0.0 0.0 1.0
  outer loop
    vertex 53.63100724350922 77.70383519888739 0.9999999999999999
    vertex 51.55527131222115 79.77957113017547 0.9999999999999999
    vertex 53.535656069950484 77.57957113017547 0.9999999999999999
  endloop
endfacet
facet normal 0.0 0.0 1.0
  outer loop
    vertex 53.535656069950484 77.57957113017547 0.9999999999999999
    vertex 51.55527131222115 79.77957113017547 0.9999999999999999
    vertex 53.4757158164477 77.43486255723698 0.9999999999999999
  endloop
endfacet
facet normal 0.0 0.0 1.0
  outer loop
    vertex 53.4757158164477 77.43486255723698 0.9999999999999999
    vertex 51.55527131222115 79.77957113017547 0.9999999999999999
    vertex 53.45527131222115 77.27957113017546 0.9999999999999999
  endloop
endfacet
facet normal 0.0 0.0 1.0
  outer loop
    vertex 56.55527131222115 79.77957113017547 0.9999999999999999
    vertex 53.75527131222115 77.79918637244613 0.9999999999999999
    vertex 53.89997988515964 77.8591266259489 0.9999999999999999
  endloop
endfacet
facet normal 0.0 0.0 1.0
  outer loop
    vertex 56.55527131222115 79.77957113017547 0.9999999999999999
    vertex 53.89997988515964 77.8591266259489 0.9999999999999999
    vertex 54.055271312221144 77.87957113017546 0.9999999999999999
  endloop
endfacet
facet normal 0.0 0.0 1.0
  outer loop
    vertex 56.55527131222115 79.77957113017547 0.9999999999999999
    vertex 54.055271312221144 77.87957113017546 0.9999999999999999
    vertex 54.210562739282665 77.8591266259489 0.9999999999999999
  endloop
endfacet
facet normal 0.0 0.0 1.0
  outer loop
    vertex 56.55527131222115 79.77957113017547 0.9999999999999999
    vertex 54.210562739282665 77.8591266259489 0.9999999999999999
    vertex 54.35527131222114 77.79918637244613 0.9999999999999999
  endloop
endfacet
facet normal 0.0 0.0 1.0
  outer loop
    vertex 56.55527131222115 79.77957113017547 0.9999999999999999
    vertex 54.35527131222114 77.79918637244613 0.9999999999999999
    vertex 54.479535380933065 77.7038351988874 0.9999999999999999
  endloop
endfacet
facet normal 0.0 0.0 1.0
  outer loop
    vertex 56.55527131222115 79.77957113017547 0.9999999999999999
    vertex 54.479535380933065 77.7038351988874 0.9999999999999999
    vertex 54.574886554491805 77.57957113017547 0.9999999999999999
  endloop
endfacet
facet normal 0.0 0.0 1.0
  outer loop
    vertex 56.55527131222115 79.77957113017547 0.9999999999999999
    vertex 54.574886554491805 77.57957113017547 0.9999999999999999
    vertex 54.634826807994585 77.43486255723698 0.9999999999999999
  endloop
endfacet
facet normal 0.0 0.0 1.0
  outer loop
    vertex 56.55527131222115 79.77957113017547 0.9999999999999999
    vertex 54.634826807994585 77.43486255723698 0.9999999999999999
    vertex 54.655271312221146 77.27957113017547 0.9999999999999999
  endloop
endfacet
facet normal 0.0 0.0 1.0
  outer loop
    vertex 56.55527131222115 79.77957113017547 0.9999999999999999
    vertex 54.655271312221146 77.27957113017547 0.9999999999999999
    vertex 56.55527131222115 59.77957113017547 0.9999999999999999
  endloop
endfacet
facet normal 0.0 0.0 1.0
  outer loop
    vertex 53.555271312221144 74.77957113017546 0.9999999999999999
    vertex 51.55527131222115 79.77957113017547 0.9999999999999999
    vertex 51.55527131222115 74.77957113017546 0.9999999999999999
  endloop
endfacet
facet normal 0.0 0.0 1.0
  outer loop
    vertex 51.55527131222115 79.77957113017547 0.9999999999999999
    vertex 53.555271312221144 74.77957113017546 0.9999999999999999
    vertex 53.45527131222115 77.27957113017546 0.9999999999999999
  endloop
endfacet
facet normal 0.0 0.0 1.0
  outer loop
    vertex 53.45527131222115 77.27957113017546 0.9999999999999999
    vertex 53.555271312221144 74.77957113017546 0.9999999999999999
    vertex 53.4757158164477 77.12427970311396 0.9999999999999999
  endloop
endfacet
facet normal 0.0 0.0 1.0
  outer loop
    vertex 53.4757158164477 77.12427970311396 0.9999999999999999
    vertex 53.555271312221144 74.77957113017546 0.9999999999999999
    vertex 53.535656069950484 76.97957113017547 0.9999999999999999
  endloop
endfacet
facet normal 0.0 0.0 1.0
  outer loop
    vertex 53.535656069950484 76.97957113017547 0.9999999999999999
    vertex 53.555271312221144 74.77957113017546 0.9999999999999999
    vertex 53.631007243509224 76.85530706146353 0.9999999999999999
  endloop
endfacet
facet normal 0.0 0.0 1.0
  outer loop
    vertex 53.631007243509224 76.85530706146353 0.9999999999999999
    vertex 53.555271312221144 74.77957113017546 0.9999999999999999
    vertex 53.63100724350922 62.7038351988874 0.9999999999999999
  endloop
endfacet
facet normal 0.0 0.0 1.0
  outer loop
    vertex 53.631007243509224 76.85530706146353 0.9999999999999999
    vertex 53.63100724350922 62.7038351988874 0.9999999999999999
    vertex 53.75527131222115 62.79918637244612 0.9999999999999999
  endloop
endfacet
facet normal 0.0 0.0 1.0
  outer loop
    vertex 53.631007243509224 76.85530706146353 0.9999999999999999
    vertex 53.75527131222115 62.79918637244612 0.9999999999999999
    vertex 53.75527131222115 76.75995588790481 0.9999999999999999
  endloop
endfacet
facet normal 0.0 0.0 1.0
  outer loop
    vertex 53.75527131222115 76.75995588790481 0.9999999999999999
    vertex 53.75527131222115 62.79918637244612 0.9999999999999999
    vertex 53.89997988515964 62.8591266259489 0.9999999999999999
  endloop
endfacet
facet normal 0.0 0.0 1.0
  outer loop
    vertex 53.75527131222115 76.75995588790481 0.9999999999999999
    vertex 53.89997988515964 62.8591266259489 0.9999999999999999
    vertex 53.899979885159624 76.70001563440202 0.9999999999999999
  endloop
endfacet
facet normal 0.0 0.0 1.0
  outer loop
    vertex 53.899979885159624 76.70001563440202 0.9999999999999999
    vertex 53.89997988515964 62.8591266259489 0.9999999999999999
    vertex 54.05527131222114 76.67957113017547 0.9999999999999999
  endloop
endfacet
facet normal 0.0 0.0 1.0
  outer loop
    vertex 54.05527131222114 76.67957113017547 0.9999999999999999
    vertex 53.89997988515964 62.8591266259489 0.9999999999999999
    vertex 54.055271312221144 62.879571130175464 0.9999999999999999
  endloop
endfacet
facet normal 0.0 0.0 1.0
  outer loop
    vertex 54.05527131222114 76.67957113017547 0.9999999999999999
    vertex 54.055271312221144 62.879571130175464 0.9999999999999999
    vertex 54.21056273928266 76.70001563440202 0.9999999999999999
  endloop
endfacet
facet normal 0.0 0.0 1.0
  outer loop
    vertex 54.21056273928266 76.70001563440202 0.9999999999999999
    vertex 54.055271312221144 62.879571130175464 0.9999999999999999
    vertex 54.21056273928266 62.8591266259489 0.9999999999999999
  endloop
endfacet
facet normal 0.0 0.0 1.0
  outer loop
    vertex 54.21056273928266 76.70001563440202 0.9999999999999999
    vertex 54.21056273928266 62.8591266259489 0.9999999999999999
    vertex 54.35527131222114 62.79918637244612 0.9999999999999999
  endloop
endfacet
facet normal 0.0 0.0 1.0
  outer loop
    vertex 54.21056273928266 76.70001563440202 0.9999999999999999
    vertex 54.35527131222114 62.79918637244612 0.9999999999999999
    vertex 54.35527131222114 76.75995588790481 0.9999999999999999
  endloop
endfacet
facet normal 0.0 0.0 1.0
  outer loop
    vertex 54.35527131222114 76.75995588790481 0.9999999999999999
    vertex 54.35527131222114 62.79918637244612 0.9999999999999999
    vertex 54.47953538093308 62.7038351988874 0.9999999999999999
  endloop
endfacet
facet normal 0.0 0.0 1.0
  outer loop
    vertex 54.35527131222114 76.75995588790481 0.9999999999999999
    vertex 54.47953538093308 62.7038351988874 0.9999999999999999
    vertex 54.47953538093308 76.85530706146355 0.9999999999999999
  endloop
endfacet
facet normal 0.0 0.0 1.0
  outer loop
    vertex 54.47953538093308 76.85530706146355 0.9999999999999999
    vertex 54.47953538093308 62.7038351988874 0.9999999999999999
    vertex 54.574886554491805 62.57957113017546 0.9999999999999999
  endloop
endfacet
facet normal 0.0 0.0 1.0
  outer loop
    vertex 54.47953538093308 76.85530706146355 0.9999999999999999
    vertex 54.574886554491805 62.57957113017546 0.9999999999999999
    vertex 54.5748865544918 76.97957113017547 0.9999999999999999
  endloop
endfacet
facet normal 0.0 0.0 1.0
  outer loop
    vertex 54.5748865544918 76.97957113017547 0.9999999999999999
    vertex 54.574886554491805 62.57957113017546 0.9999999999999999
    vertex 54.634826807994585 77.12427970311394 0.9999999999999999
  endloop
endfacet
facet normal 0.0 0.0 1.0
  outer loop
    vertex 54.634826807994585 77.12427970311394 0.9999999999999999
    vertex 54.574886554491805 62.57957113017546 0.9999999999999999
    vertex 54.634826807994585 62.43486255723697 0.9999999999999999
  endloop
endfacet
facet normal 0.0 0.0 1.0
  outer loop
    vertex 54.634826807994585 77.12427970311394 0.9999999999999999
    vertex 54.634826807994585 62.43486255723697 0.9999999999999999
    vertex 54.655271312221146 62.27957113017546 0.9999999999999999
  endloop
endfacet
facet normal 0.0 0.0 1.0
  outer loop
    vertex 54.634826807994585 77.12427970311394 0.9999999999999999
    vertex 54.655271312221146 62.27957113017546 0.9999999999999999
    vertex 54.655271312221146 77.27957113017547 0.9999999999999999
  endloop
endfacet
facet normal -1.578339449187258e-16 -3.410845709558304e-32 -1.0
  outer loop
    vertex 51.55527131222115 79.77957113017547 0.0
    vertex 53.535656069950484 77.57957113017547 0.0
    vertex 51.55527131222115 74.77957113017546 1.762479051592436e-15
  endloop
endfacet
facet normal -1.578339449187258e-16 -3.410845709558304e-32 -1.0
  outer loop
    vertex 53.535656069950484 77.57957113017547 0.0
    vertex 51.55527131222115 79.77957113017547 0.0
    vertex 53.63100724350922 77.70383519888739 0.0
  endloop
endfacet
facet normal -1.578339449187258e-16 -3.410845709558304e-32 -1.0
  outer loop
    vertex 53.63100724350922 77.70383519888739 0.0
    vertex 51.55527131222115 79.77957113017547 0.0
    vertex 53.75527131222115 77.79918637244613 0.0
  endloop
endfacet
facet normal -1.578339449187258e-16 -3.410845709558304e-32 -1.0
  outer loop
    vertex 53.75527131222115 77.79918637244613 0.0
    vertex 51.55527131222115 79.77957113017547 0.0
    vertex 56.55527131222115 79.77957113017547 0.0
  endloop
endfacet
facet normal -1.578339449187258e-16 -3.410845709558304e-32 -1.0
  outer loop
    vertex 51.55527131222115 74.77957113017546 1.762479051592436e-15
    vertex 53.535656069950484 77.57957113017547 0.0
    vertex 53.4757158164477 77.43486255723698 0.0
  endloop
endfacet
facet normal -1.578339449187258e-16 -3.410845709558304e-32 -1.0
  outer loop
    vertex 51.55527131222115 74.77957113017546 1.762479051592436e-15
    vertex 53.4757158164477 77.43486255723698 0.0
    vertex 53.45527131222115 77.27957113017546 0.0
  endloop
endfacet
facet normal -1.578339449187258e-16 -3.410845709558304e-32 -1.0
  outer loop
    vertex 53.75527131222115 77.79918637244613 0.0
    vertex 56.55527131222115 79.77957113017547 0.0
    vertex 53.89997988515964 77.8591266259489 0.0
  endloop
endfacet
facet normal -1.578339449187258e-16 -3.410845709558304e-32 -1.0
  outer loop
    vertex 53.89997988515964 77.8591266259489 0.0
    vertex 56.55527131222115 79.77957113017547 0.0
    vertex 54.055271312221144 77.87957113017546 0.0
  endloop
endfacet
facet normal -1.578339449187258e-16 -3.410845709558304e-32 -1.0
  outer loop
    vertex 54.055271312221144 77.87957113017546 0.0
    vertex 56.55527131222115 79.77957113017547 0.0
    vertex 54.210562739282665 77.8591266259489 0.0
  endloop
endfacet
facet normal -1.578339449187258e-16 -3.410845709558304e-32 -1.0
  outer loop
    vertex 54.210562739282665 77.8591266259489 0.0
    vertex 56.55527131222115 79.77957113017547 0.0
    vertex 54.35527131222114 77.79918637244613 0.0
  endloop
endfacet
facet normal -1.578339449187258e-16 -3.410845709558304e-32 -1.0
  outer loop
    vertex 54.35527131222114 77.79918637244613 0.0
    vertex 56.55527131222115 79.77957113017547 0.0
    vertex 54.479535380933065 77.7038351988874 0.0
  endloop
endfacet
facet normal -1.578339449187258e-16 -3.410845709558304e-32 -1.0
  outer loop
    vertex 54.479535380933065 77.7038351988874 0.0
    vertex 56.55527131222115 79.77957113017547 0.0
    vertex 54.574886554491805 77.57957113017547 0.0
  endloop
endfacet
facet normal -1.578339449187258e-16 -3.410845709558304e-32 -1.0
  outer loop
    vertex 54.574886554491805 77.57957113017547 0.0
    vertex 56.55527131222115 79.77957113017547 0.0
    vertex 54.634826807994585 77.43486255723698 0.0
  endloop
endfacet
facet normal -1.578339449187258e-16 -3.410845709558304e-32 -1.0
  outer loop
    vertex 54.634826807994585 77.43486255723698 0.0
    vertex 56.55527131222115 79.77957113017547 0.0
    vertex 54.655271312221146 77.27957113017547 0.0
  endloop
endfacet
facet normal -1.578339449187258e-16 -3.410845709558304e-32 -1.0
  outer loop
    vertex 54.655271312221146 77.27957113017547 0.0
    vertex 56.55527131222115 79.77957113017547 0.0
    vertex 54.655271312221146 62.27957113017546 0.0
  endloop
endfacet
facet normal -1.578339449187258e-16 -3.410845709558304e-32 -1.0
  outer loop
    vertex 51.55527131222115 59.77957113017547 0.0
    vertex 53.75527131222115 61.7599558879048 0.0
    vertex 56.55527131222115 59.77957113017547 0.0
  endloop
endfacet
facet normal -1.578339449187258e-16 -3.410845709558304e-32 -1.0
  outer loop
    vertex 53.75527131222115 61.7599558879048 0.0
    vertex 51.55527131222115 59.77957113017547 0.0
    vertex 53.63100724350922 61.85530706146353 0.0
  endloop
endfacet
facet normal -1.578339449187258e-16 -3.410845709558304e-32 -1.0
  outer loop
    vertex 53.63100724350922 61.85530706146353 0.0
    vertex 51.55527131222115 59.77957113017547 0.0
    vertex 53.535656069950484 61.979571130175465 0.0
  endloop
endfacet
facet normal -1.578339449187258e-16 -3.410845709558304e-32 -1.0
  outer loop
    vertex 53.535656069950484 61.979571130175465 0.0
    vertex 51.55527131222115 59.77957113017547 0.0
    vertex 53.4757158164477 62.124279703113956 0.0
  endloop
endfacet
facet normal -1.578339449187258e-16 -3.410845709558304e-32 -1.0
  outer loop
    vertex 53.4757158164477 62.124279703113956 0.0
    vertex 51.55527131222115 59.77957113017547 0.0
    vertex 53.45527131222115 62.27957113017546 0.0
  endloop
endfacet
facet normal -1.578339449187258e-16 -3.410845709558304e-32 -1.0
  outer loop
    vertex 56.55527131222115 59.77957113017547 0.0
    vertex 53.75527131222115 61.7599558879048 0.0
    vertex 53.89997988515964 61.70001563440202 0.0
  endloop
endfacet
facet normal -1.578339449187258e-16 -3.410845709558304e-32 -1.0
  outer loop
    vertex 56.55527131222115 59.77957113017547 0.0
    vertex 53.89997988515964 61.70001563440202 0.0
    vertex 54.055271312221144 61.67957113017546 0.0
  endloop
endfacet
facet normal -1.578339449187258e-16 -3.410845709558304e-32 -1.0
  outer loop
    vertex 56.55527131222115 59.77957113017547 0.0
    vertex 54.055271312221144 61.67957113017546 0.0
    vertex 54.21056273928266 61.70001563440202 0.0
  endloop
endfacet
facet normal -1.578339449187258e-16 -3.410845709558304e-32 -1.0
  outer loop
    vertex 56.55527131222115 59.77957113017547 0.0
    vertex 54.21056273928266 61.70001563440202 0.0
    vertex 54.35527131222114 61.7599558879048 0.0
  endloop
endfacet
facet normal -1.578339449187258e-16 -3.410845709558304e-32 -1.0
  outer loop
    vertex 56.55527131222115 59.77957113017547 0.0
    vertex 54.35527131222114 61.7599558879048 0.0
    vertex 54.47953538093308 61.85530706146353 0.0
  endloop
endfacet
facet normal -1.578339449187258e-16 -3.410845709558304e-32 -1.0
  outer loop
    vertex 56.55527131222115 59.77957113017547 0.0
    vertex 54.47953538093308 61.85530706146353 0.0
    vertex 54.574886554491805 61.979571130175465 0.0
  endloop
endfacet
facet normal -1.578339449187258e-16 -3.410845709558304e-32 -1.0
  outer loop
    vertex 56.55527131222115 59.77957113017547 0.0
    vertex 54.574886554491805 61.979571130175465 0.0
    vertex 54.634826807994585 62.124279703113956 0.0
  endloop
endfacet
facet normal -1.578339449187258e-16 -3.410845709558304e-32 -1.0
  outer loop
    vertex 56.55527131222115 59.77957113017547 0.0
    vertex 54.634826807994585 62.124279703113956 0.0
    vertex 54.655271312221146 62.27957113017546 0.0
  endloop
endfacet
facet normal -1.578339449187258e-16 -3.410845709558304e-32 -1.0
  outer loop
    vertex 56.55527131222115 59.77957113017547 0.0
    vertex 54.655271312221146 62.27957113017546 0.0
    vertex 56.55527131222115 79.77957113017547 0.0
  endloop
endfacet
facet normal -1.578339449187258e-16 -3.410845709558304e-32 -1.0
  outer loop
    vertex 53.45527131222115 77.27957113017546 0.0
    vertex 53.555271312221144 74.77957113017546 1.762479051592436e-15
    vertex 51.55527131222115 74.77957113017546 1.762479051592436e-15
  endloop
endfacet
facet normal -1.578339449187258e-16 -3.410845709558304e-32 -1.0
  outer loop
    vertex 53.555271312221144 74.77957113017546 1.762479051592436e-15
    vertex 53.45527131222115 77.27957113017546 0.0
    vertex 53.4757158164477 77.12427970311396 0.0
  endloop
endfacet
facet normal -1.578339449187258e-16 -3.410845709558304e-32 -1.0
  outer loop
    vertex 53.555271312221144 74.77957113017546 1.762479051592436e-15
    vertex 53.4757158164477 77.12427970311396 0.0
    vertex 53.535656069950484 76.97957113017547 0.0
  endloop
endfacet
facet normal -1.578339449187258e-16 -3.410845709558304e-32 -1.0
  outer loop
    vertex 53.555271312221144 74.77957113017546 1.762479051592436e-15
    vertex 53.535656069950484 76.97957113017547 0.0
    vertex 53.631007243509224 76.85530706146353 0.0
  endloop
endfacet
facet normal -1.578339449187258e-16 -3.410845709558304e-32 -1.0
  outer loop
    vertex 53.555271312221144 74.77957113017546 1.762479051592436e-15
    vertex 53.631007243509224 76.85530706146353 0.0
    vertex 53.555271312221144 64.77957113017546 1.762479051592436e-15
  endloop
endfacet
facet normal -1.578339449187258e-16 -3.410845709558304e-32 -1.0
  outer loop
    vertex 53.555271312221144 64.77957113017546 1.762479051592436e-15
    vertex 53.631007243509224 76.85530706146353 0.0
    vertex 53.63100724350922 62.7038351988874 0.0
  endloop
endfacet
facet normal -1.578339449187258e-16 -3.410845709558304e-32 -1.0
  outer loop
    vertex 53.63100724350922 62.7038351988874 0.0
    vertex 53.631007243509224 76.85530706146353 0.0
    vertex 53.75527131222115 62.79918637244612 0.0
  endloop
endfacet
facet normal -1.578339449187258e-16 -3.410845709558304e-32 -1.0
  outer loop
    vertex 53.75527131222115 62.79918637244612 0.0
    vertex 53.631007243509224 76.85530706146353 0.0
    vertex 53.75527131222115 76.75995588790481 0.0
  endloop
endfacet
facet normal -1.578339449187258e-16 -3.410845709558304e-32 -1.0
  outer loop
    vertex 53.75527131222115 62.79918637244612 0.0
    vertex 53.75527131222115 76.75995588790481 0.0
    vertex 53.899979885159624 76.70001563440202 0.0
  endloop
endfacet
facet normal -1.578339449187258e-16 -3.410845709558304e-32 -1.0
  outer loop
    vertex 53.75527131222115 62.79918637244612 0.0
    vertex 53.899979885159624 76.70001563440202 0.0
    vertex 53.89997988515964 62.8591266259489 0.0
  endloop
endfacet
facet normal -1.578339449187258e-16 -3.410845709558304e-32 -1.0
  outer loop
    vertex 53.89997988515964 62.8591266259489 0.0
    vertex 53.899979885159624 76.70001563440202 0.0
    vertex 54.05527131222114 76.67957113017547 0.0
  endloop
endfacet
facet normal -1.578339449187258e-16 -3.410845709558304e-32 -1.0
  outer loop
    vertex 53.89997988515964 62.8591266259489 0.0
    vertex 54.05527131222114 76.67957113017547 0.0
    vertex 54.055271312221144 62.879571130175464 0.0
  endloop
endfacet
facet normal -1.578339449187258e-16 -3.410845709558304e-32 -1.0
  outer loop
    vertex 54.055271312221144 62.879571130175464 0.0
    vertex 54.05527131222114 76.67957113017547 0.0
    vertex 54.21056273928266 76.70001563440202 0.0
  endloop
endfacet
facet normal -1.578339449187258e-16 -3.410845709558304e-32 -1.0
  outer loop
    vertex 54.055271312221144 62.879571130175464 0.0
    vertex 54.21056273928266 76.70001563440202 0.0
    vertex 54.21056273928266 62.8591266259489 0.0
  endloop
endfacet
facet normal -1.578339449187258e-16 -3.410845709558304e-32 -1.0
  outer loop
    vertex 54.21056273928266 62.8591266259489 0.0
    vertex 54.21056273928266 76.70001563440202 0.0
    vertex 54.35527131222114 76.75995588790481 0.0
  endloop
endfacet
facet normal -1.578339449187258e-16 -3.410845709558304e-32 -1.0
  outer loop
    vertex 54.21056273928266 62.8591266259489 0.0
    vertex 54.35527131222114 76.75995588790481 0.0
    vertex 54.35527131222114 62.79918637244612 0.0
  endloop
endfacet
facet normal -1.578339449187258e-16 -3.410845709558304e-32 -1.0
  outer loop
    vertex 54.35527131222114 62.79918637244612 0.0
    vertex 54.35527131222114 76.75995588790481 0.0
    vertex 54.47953538093308 76.85530706146355 0.0
  endloop
endfacet
facet normal -1.578339449187258e-16 -3.410845709558304e-32 -1.0
  outer loop
    vertex 54.35527131222114 62.79918637244612 0.0
    vertex 54.47953538093308 76.85530706146355 0.0
    vertex 54.47953538093308 62.7038351988874 0.0
  endloop
endfacet
facet normal -1.578339449187258e-16 -3.410845709558304e-32 -1.0
  outer loop
    vertex 54.47953538093308 62.7038351988874 0.0
    vertex 54.47953538093308 76.85530706146355 0.0
    vertex 54.5748865544918 76.97957113017547 0.0
  endloop
endfacet
facet normal -1.578339449187258e-16 -3.410845709558304e-32 -1.0
  outer loop
    vertex 54.47953538093308 62.7038351988874 0.0
    vertex 54.5748865544918 76.97957113017547 0.0
    vertex 54.574886554491805 62.57957113017546 0.0
  endloop
endfacet
facet normal -1.578339449187258e-16 -3.410845709558304e-32 -1.0
  outer loop
    vertex 54.574886554491805 62.57957113017546 0.0
    vertex 54.5748865544918 76.97957113017547 0.0
    vertex 54.634826807994585 77.12427970311394 0.0
  endloop
endfacet
facet normal -1.578339449187258e-16 -3.410845709558304e-32 -1.0
  outer loop
    vertex 54.574886554491805 62.57957113017546 0.0
    vertex 54.634826807994585 77.12427970311394 0.0
    vertex 54.634826807994585 62.43486255723697 0.0
  endloop
endfacet
facet normal -1.578339449187258e-16 -3.410845709558304e-32 -1.0
  outer loop
    vertex 54.634826807994585 62.43486255723697 0.0
    vertex 54.634826807994585 77.12427970311394 0.0
    vertex 54.655271312221146 77.27957113017547 0.0
  endloop
endfacet
facet normal -1.578339449187258e-16 -3.410845709558304e-32 -1.0
  outer loop
    vertex 54.634826807994585 62.43486255723697 0.0
    vertex 54.655271312221146 77.27957113017547 0.0
    vertex 54.655271312221146 62.27957113017546 0.0
  endloop
endfacet
facet normal -1.578339449187258e-16 -3.410845709558304e-32 -1.0
  outer loop
    vertex 53.555271312221144 64.77957113017546 1.762479051592436e-15
    vertex 51.55527131222115 59.77957113017547 0.0
    vertex 51.55527131222115 64.77957113017546 1.762479051592436e-15
  endloop
endfacet
facet normal -1.578339449187258e-16 -3.410845709558304e-32 -1.0
  outer loop
    vertex 51.55527131222115 59.77957113017547 0.0
    vertex 53.555271312221144 64.77957113017546 1.762479051592436e-15
    vertex 53.45527131222115 62.27957113017546 0.0
  endloop
endfacet
facet normal -1.578339449187258e-16 -3.410845709558304e-32 -1.0
  outer loop
    vertex 53.45527131222115 62.27957113017546 0.0
    vertex 53.555271312221144 64.77957113017546 1.762479051592436e-15
    vertex 53.4757158164477 62.43486255723697 0.0
  endloop
endfacet
facet normal -1.578339449187258e-16 -3.410845709558304e-32 -1.0
  outer loop
    vertex 53.4757158164477 62.43486255723697 0.0
    vertex 53.555271312221144 64.77957113017546 1.762479051592436e-15
    vertex 53.535656069950484 62.57957113017546 0.0
  endloop
endfacet
facet normal -1.578339449187258e-16 -3.410845709558304e-32 -1.0
  outer loop
    vertex 53.535656069950484 62.57957113017546 0.0
    vertex 53.555271312221144 64.77957113017546 1.762479051592436e-15
    vertex 53.63100724350922 62.7038351988874 0.0
  endloop
endfacet
facet normal 0.1305261922200474 0.9914448613738109 0.0
  outer loop
    vertex 53.89997988515964 61.70001563440202 0.9999999999999999
    vertex 54.055271312221144 61.67957113017546 0.0
    vertex 53.89997988515964 61.70001563440202 0.0
  endloop
endfacet
facet normal 0.1305261922200474 0.9914448613738109 0.0
  outer loop
    vertex 54.055271312221144 61.67957113017546 0.0
    vertex 53.89997988515964 61.70001563440202 0.9999999999999999
    vertex 54.055271312221144 61.67957113017546 0.9999999999999999
  endloop
endfacet
facet normal -0.1305261922200474 0.9914448613738109 0.0
  outer loop
    vertex 54.055271312221144 61.67957113017546 0.9999999999999999
    vertex 54.21056273928266 61.70001563440202 0.0
    vertex 54.055271312221144 61.67957113017546 0.0
  endloop
endfacet
facet normal -0.1305261922200474 0.9914448613738109 0.0
  outer loop
    vertex 54.21056273928266 61.70001563440202 0.0
    vertex 54.055271312221144 61.67957113017546 0.9999999999999999
    vertex 54.21056273928266 61.70001563440202 0.9999999999999999
  endloop
endfacet
facet normal -0.38268343236508806 0.9238795325112875 0.0
  outer loop
    vertex 54.21056273928266 61.70001563440202 0.9999999999999999
    vertex 54.35527131222114 61.7599558879048 0.0
    vertex 54.21056273928266 61.70001563440202 0.0
  endloop
endfacet
facet normal -0.38268343236508806 0.9238795325112875 0.0
  outer loop
    vertex 54.35527131222114 61.7599558879048 0.0
    vertex 54.21056273928266 61.70001563440202 0.9999999999999999
    vertex 54.35527131222114 61.7599558879048 0.9999999999999999
  endloop
endfacet
facet normal -0.6087614290086921 0.793353340291257 0.0
  outer loop
    vertex 54.35527131222114 61.7599558879048 0.9999999999999999
    vertex 54.47953538093308 61.85530706146353 0.0
    vertex 54.35527131222114 61.7599558879048 0.0
  endloop
endfacet
facet normal -0.6087614290086921 0.793353340291257 0.0
  outer loop
    vertex 54.47953538093308 61.85530706146353 0.0
    vertex 54.35527131222114 61.7599558879048 0.9999999999999999
    vertex 54.47953538093308 61.85530706146353 0.9999999999999999
  endloop
endfacet
facet normal -0.793353340291257 0.6087614290086922 0.0
  outer loop
    vertex 54.574886554491805 61.979571130175465 0.9999999999999999
    vertex 54.47953538093308 61.85530706146353 0.0
    vertex 54.47953538093308 61.85530706146353 0.9999999999999999
  endloop
endfacet
facet normal -0.793353340291257 0.6087614290086922 0.0
  outer loop
    vertex 54.47953538093308 61.85530706146353 0.0
    vertex 54.574886554491805 61.979571130175465 0.9999999999999999
    vertex 54.574886554491805 61.979571130175465 0.0
  endloop
endfacet
facet normal -0.9238795325112875 0.38268343236508806 0.0
  outer loop
    vertex 54.634826807994585 62.124279703113956 0.9999999999999999
    vertex 54.574886554491805 61.979571130175465 0.0
    vertex 54.574886554491805 61.979571130175465 0.9999999999999999
  endloop
endfacet
facet normal -0.9238795325112875 0.38268343236508806 0.0
  outer loop
    vertex 54.574886554491805 61.979571130175465 0.0
    vertex 54.634826807994585 62.124279703113956 0.9999999999999999
    vertex 54.634826807994585 62.124279703113956 0.0
  endloop
endfacet
facet normal -0.9914448613738109 0.1305261922200474 0.0
  outer loop
    vertex 54.655271312221146 62.27957113017546 0.9999999999999999
    vertex 54.634826807994585 62.124279703113956 0.0
    vertex 54.634826807994585 62.124279703113956 0.9999999999999999
  endloop
endfacet
facet normal -0.9914448613738109 0.1305261922200474 0.0
  outer loop
    vertex 54.634826807994585 62.124279703113956 0.0
    vertex 54.655271312221146 62.27957113017546 0.9999999999999999
    vertex 54.655271312221146 62.27957113017546 0.0
  endloop
endfacet
facet normal -0.9914448613738109 -0.1305261922200474 0.0
  outer loop
    vertex 54.634826807994585 62.43486255723697 0.9999999999999999
    vertex 54.655271312221146 62.27957113017546 0.0
    vertex 54.655271312221146 62.27957113017546 0.9999999999999999
  endloop
endfacet
facet normal -0.9914448613738109 -0.1305261922200474 0.0
  outer loop
    vertex 54.655271312221146 62.27957113017546 0.0
    vertex 54.634826807994585 62.43486255723697 0.9999999999999999
    vertex 54.634826807994585 62.43486255723697 0.0
  endloop
endfacet
facet normal -0.9238795325112875 -0.38268343236508806 0.0
  outer loop
    vertex 54.574886554491805 62.57957113017546 0.9999999999999999
    vertex 54.634826807994585 62.43486255723697 0.0
    vertex 54.634826807994585 62.43486255723697 0.9999999999999999
  endloop
endfacet
facet normal -0.9238795325112875 -0.38268343236508806 0.0
  outer loop
    vertex 54.634826807994585 62.43486255723697 0.0
    vertex 54.574886554491805 62.57957113017546 0.9999999999999999
    vertex 54.574886554491805 62.57957113017546 0.0
  endloop
endfacet
facet normal -0.793353340291257 -0.6087614290086921 0.0
  outer loop
    vertex 54.47953538093308 62.7038351988874 0.9999999999999999
    vertex 54.574886554491805 62.57957113017546 0.0
    vertex 54.574886554491805 62.57957113017546 0.9999999999999999
  endloop
endfacet
facet normal -0.793353340291257 -0.6087614290086921 0.0
  outer loop
    vertex 54.574886554491805 62.57957113017546 0.0
    vertex 54.47953538093308 62.7038351988874 0.9999999999999999
    vertex 54.47953538093308 62.7038351988874 0.0
  endloop
endfacet
facet normal -0.6087614290086922 -0.793353340291257 0.0
  outer loop
    vertex 54.47953538093308 62.7038351988874 0.9999999999999999
    vertex 54.35527131222114 62.79918637244612 0.0
    vertex 54.47953538093308 62.7038351988874 0.0
  endloop
endfacet
facet normal -0.6087614290086922 -0.793353340291257 0.0
  outer loop
    vertex 54.35527131222114 62.79918637244612 0.0
    vertex 54.47953538093308 62.7038351988874 0.9999999999999999
    vertex 54.35527131222114 62.79918637244612 0.9999999999999999
  endloop
endfacet
facet normal -0.38268343236508806 -0.9238795325112875 0.0
  outer loop
    vertex 54.35527131222114 62.79918637244612 0.9999999999999999
    vertex 54.21056273928266 62.8591266259489 0.0
    vertex 54.35527131222114 62.79918637244612 0.0
  endloop
endfacet
facet normal -0.38268343236508806 -0.9238795325112875 0.0
  outer loop
    vertex 54.21056273928266 62.8591266259489 0.0
    vertex 54.35527131222114 62.79918637244612 0.9999999999999999
    vertex 54.21056273928266 62.8591266259489 0.9999999999999999
  endloop
endfacet
facet normal -0.1305261922200474 -0.9914448613738109 0.0
  outer loop
    vertex 54.21056273928266 62.8591266259489 0.9999999999999999
    vertex 54.055271312221144 62.879571130175464 0.0
    vertex 54.21056273928266 62.8591266259489 0.0
  endloop
endfacet
facet normal -0.1305261922200474 -0.9914448613738109 0.0
  outer loop
    vertex 54.055271312221144 62.879571130175464 0.0
    vertex 54.21056273928266 62.8591266259489 0.9999999999999999
    vertex 54.055271312221144 62.879571130175464 0.9999999999999999
  endloop
endfacet
facet normal 0.1305261922200474 -0.9914448613738109 0.0
  outer loop
    vertex 54.055271312221144 62.879571130175464 0.9999999999999999
    vertex 53.89997988515964 62.8591266259489 0.0
    vertex 54.055271312221144 62.879571130175464 0.0
  endloop
endfacet
facet normal 0.1305261922200474 -0.9914448613738109 0.0
  outer loop
    vertex 53.89997988515964 62.8591266259489 0.0
    vertex 54.055271312221144 62.879571130175464 0.9999999999999999
    vertex 53.89997988515964 62.8591266259489 0.9999999999999999
  endloop
endfacet
facet normal 0.38268343236508806 -0.9238795325112875 0.0
  outer loop
    vertex 53.89997988515964 62.8591266259489 0.9999999999999999
    vertex 53.75527131222115 62.79918637244612 0.0
    vertex 53.89997988515964 62.8591266259489 0.0
  endloop
endfacet
facet normal 0.38268343236508806 -0.9238795325112875 0.0
  outer loop
    vertex 53.75527131222115 62.79918637244612 0.0
    vertex 53.89997988515964 62.8591266259489 0.9999999999999999
    vertex 53.75527131222115 62.79918637244612 0.9999999999999999
  endloop
endfacet
facet normal 0.6087614290086921 -0.793353340291257 0.0
  outer loop
    vertex 53.75527131222115 62.79918637244612 0.9999999999999999
    vertex 53.63100724350922 62.7038351988874 0.0
    vertex 53.75527131222115 62.79918637244612 0.0
  endloop
endfacet
facet normal 0.6087614290086921 -0.793353340291257 0.0
  outer loop
    vertex 53.63100724350922 62.7038351988874 0.0
    vertex 53.75527131222115 62.79918637244612 0.9999999999999999
    vertex 53.63100724350922 62.7038351988874 0.9999999999999999
  endloop
endfacet
facet normal 0.793353340291257 -0.6087614290086922 0.0
  outer loop
    vertex 53.63100724350922 62.7038351988874 0.0
    vertex 53.535656069950484 62.57957113017546 0.9999999999999999
    vertex 53.535656069950484 62.57957113017546 0.0
  endloop
endfacet
facet normal 0.793353340291257 -0.6087614290086922 0.0
  outer loop
    vertex 53.535656069950484 62.57957113017546 0.9999999999999999
    vertex 53.63100724350922 62.7038351988874 0.0
    vertex 53.63100724350922 62.7038351988874 0.9999999999999999
  endloop
endfacet
facet normal 0.9238795325112875 -0.38268343236508806 0.0
  outer loop
    vertex 53.535656069950484 62.57957113017546 0.0
    vertex 53.4757158164477 62.43486255723697 0.9999999999999999
    vertex 53.4757158164477 62.43486255723697 0.0
  endloop
endfacet
facet normal 0.9238795325112875 -0.38268343236508806 0.0
  outer loop
    vertex 53.4757158164477 62.43486255723697 0.9999999999999999
    vertex 53.535656069950484 62.57957113017546 0.0
    vertex 53.535656069950484 62.57957113017546 0.9999999999999999
  endloop
endfacet
facet normal 0.9914448613738109 -0.1305261922200474 0.0
  outer loop
    vertex 53.4757158164477 62.43486255723697 0.0
    vertex 53.45527131222115 62.27957113017546 0.9999999999999999
    vertex 53.45527131222115 62.27957113017546 0.0
  endloop
endfacet
facet normal 0.9914448613738109 -0.1305261922200474 0.0
  outer loop
    vertex 53.45527131222115 62.27957113017546 0.9999999999999999
    vertex 53.4757158164477 62.43486255723697 0.0
    vertex 53.4757158164477 62.43486255723697 0.9999999999999999
  endloop
endfacet
facet normal 0.9914448613738109 0.1305261922200474 0.0
  outer loop
    vertex 53.45527131222115 62.27957113017546 0.0
    vertex 53.4757158164477 62.124279703113956 0.9999999999999999
    vertex 53.4757158164477 62.124279703113956 0.0
  endloop
endfacet
facet normal 0.9914448613738109 0.1305261922200474 0.0
  outer loop
    vertex 53.4757158164477 62.124279703113956 0.9999999999999999
    vertex 53.45527131222115 62.27957113017546 0.0
    vertex 53.45527131222115 62.27957113017546 0.9999999999999999
  endloop
endfacet
facet normal 0.9238795325112875 0.38268343236508806 0.0
  outer loop
    vertex 53.4757158164477 62.124279703113956 0.0
    vertex 53.535656069950484 61.979571130175465 0.9999999999999999
    vertex 53.535656069950484 61.979571130175465 0.0
  endloop
endfacet
facet normal 0.9238795325112875 0.38268343236508806 0.0
  outer loop
    vertex 53.535656069950484 61.979571130175465 0.9999999999999999
    vertex 53.4757158164477 62.124279703113956 0.0
    vertex 53.4757158164477 62.124279703113956 0.9999999999999999
  endloop
endfacet
facet normal 0.793353340291257 0.6087614290086921 0.0
  outer loop
    vertex 53.535656069950484 61.979571130175465 0.0
    vertex 53.63100724350922 61.85530706146353 0.9999999999999999
    vertex 53.63100724350922 61.85530706146353 0.0
  endloop
endfacet
facet normal 0.793353340291257 0.6087614290086921 0.0
  outer loop
    vertex 53.63100724350922 61.85530706146353 0.9999999999999999
    vertex 53.535656069950484 61.979571130175465 0.0
    vertex 53.535656069950484 61.979571130175465 0.9999999999999999
  endloop
endfacet
facet normal 0.6087614290086922 0.793353340291257 0.0
  outer loop
    vertex 53.63100724350922 61.85530706146353 0.9999999999999999
    vertex 53.75527131222115 61.7599558879048 0.0
    vertex 53.63100724350922 61.85530706146353 0.0
  endloop
endfacet
facet normal 0.6087614290086922 0.793353340291257 0.0
  outer loop
    vertex 53.75527131222115 61.7599558879048 0.0
    vertex 53.63100724350922 61.85530706146353 0.9999999999999999
    vertex 53.75527131222115 61.7599558879048 0.9999999999999999
  endloop
endfacet
facet normal 0.38268343236508806 0.9238795325112875 0.0
  outer loop
    vertex 53.75527131222115 61.7599558879048 0.9999999999999999
    vertex 53.89997988515964 61.70001563440202 0.0
    vertex 53.75527131222115 61.7599558879048 0.0
  endloop
endfacet
facet normal 0.38268343236508806 0.9238795325112875 0.0
  outer loop
    vertex 53.89997988515964 61.70001563440202 0.0
    vertex 53.75527131222115 61.7599558879048 0.9999999999999999
    vertex 53.89997988515964 61.70001563440202 0.9999999999999999
  endloop
endfacet
facet normal 0.38268343236508806 -0.9238795325112875 0.0
  outer loop
    vertex 53.89997988515964 77.8591266259489 0.9999999999999999
    vertex 53.75527131222115 77.79918637244613 0.0
    vertex 53.89997988515964 77.8591266259489 0.0
  endloop
endfacet
facet normal 0.38268343236508806 -0.9238795325112875 0.0
  outer loop
    vertex 53.75527131222115 77.79918637244613 0.0
    vertex 53.89997988515964 77.8591266259489 0.9999999999999999
    vertex 53.75527131222115 77.79918637244613 0.9999999999999999
  endloop
endfacet
facet normal 0.1305261922200474 -0.9914448613738109 0.0
  outer loop
    vertex 54.055271312221144 77.87957113017546 0.9999999999999999
    vertex 53.89997988515964 77.8591266259489 0.0
    vertex 54.055271312221144 77.87957113017546 0.0
  endloop
endfacet
facet normal 0.1305261922200474 -0.9914448613738109 0.0
  outer loop
    vertex 53.89997988515964 77.8591266259489 0.0
    vertex 54.055271312221144 77.87957113017546 0.9999999999999999
    vertex 53.89997988515964 77.8591266259489 0.9999999999999999
  endloop
endfacet
facet normal -0.1305261922200381 -0.9914448613738123 0.0
  outer loop
    vertex 54.210562739282665 77.8591266259489 0.9999999999999999
    vertex 54.055271312221144 77.87957113017546 0.0
    vertex 54.210562739282665 77.8591266259489 0.0
  endloop
endfacet
facet normal -0.1305261922200381 -0.9914448613738123 0.0
  outer loop
    vertex 54.055271312221144 77.87957113017546 0.0
    vertex 54.210562739282665 77.8591266259489 0.9999999999999999
    vertex 54.055271312221144 77.87957113017546 0.9999999999999999
  endloop
endfacet
facet normal -0.38268343236511354 -0.9238795325112771 0.0
  outer loop
    vertex 54.35527131222114 77.79918637244613 0.9999999999999999
    vertex 54.210562739282665 77.8591266259489 0.0
    vertex 54.35527131222114 77.79918637244613 0.0
  endloop
endfacet
facet normal -0.38268343236511354 -0.9238795325112771 0.0
  outer loop
    vertex 54.210562739282665 77.8591266259489 0.0
    vertex 54.35527131222114 77.79918637244613 0.9999999999999999
    vertex 54.210562739282665 77.8591266259489 0.9999999999999999
  endloop
endfacet
facet normal -0.608761429008727 -0.7933533402912304 0.0
  outer loop
    vertex 54.479535380933065 77.7038351988874 0.9999999999999999
    vertex 54.35527131222114 77.79918637244613 0.0
    vertex 54.479535380933065 77.7038351988874 0.0
  endloop
endfacet
facet normal -0.608761429008727 -0.7933533402912304 0.0
  outer loop
    vertex 54.35527131222114 77.79918637244613 0.0
    vertex 54.479535380933065 77.7038351988874 0.9999999999999999
    vertex 54.35527131222114 77.79918637244613 0.9999999999999999
  endloop
endfacet
facet normal -0.7933533402912223 -0.6087614290087375 0.0
  outer loop
    vertex 54.479535380933065 77.7038351988874 0.9999999999999999
    vertex 54.574886554491805 77.57957113017547 0.0
    vertex 54.574886554491805 77.57957113017547 0.9999999999999999
  endloop
endfacet
facet normal -0.7933533402912223 -0.6087614290087375 0.0
  outer loop
    vertex 54.574886554491805 77.57957113017547 0.0
    vertex 54.479535380933065 77.7038351988874 0.9999999999999999
    vertex 54.479535380933065 77.7038351988874 0.0
  endloop
endfacet
facet normal -0.9238795325112875 -0.38268343236508806 0.0
  outer loop
    vertex 54.574886554491805 77.57957113017547 0.9999999999999999
    vertex 54.634826807994585 77.43486255723698 0.0
    vertex 54.634826807994585 77.43486255723698 0.9999999999999999
  endloop
endfacet
facet normal -0.9238795325112875 -0.38268343236508806 0.0
  outer loop
    vertex 54.634826807994585 77.43486255723698 0.0
    vertex 54.574886554491805 77.57957113017547 0.9999999999999999
    vertex 54.574886554491805 77.57957113017547 0.0
  endloop
endfacet
facet normal -0.9914448613738109 -0.1305261922200474 0.0
  outer loop
    vertex 54.634826807994585 77.43486255723698 0.9999999999999999
    vertex 54.655271312221146 77.27957113017547 0.0
    vertex 54.655271312221146 77.27957113017547 0.9999999999999999
  endloop
endfacet
facet normal -0.9914448613738109 -0.1305261922200474 0.0
  outer loop
    vertex 54.655271312221146 77.27957113017547 0.0
    vertex 54.634826807994585 77.43486255723698 0.9999999999999999
    vertex 54.634826807994585 77.43486255723698 0.0
  endloop
endfacet
facet normal -0.9914448613738123 0.1305261922200381 0.0
  outer loop
    vertex 54.655271312221146 77.27957113017547 0.9999999999999999
    vertex 54.634826807994585 77.12427970311394 0.0
    vertex 54.634826807994585 77.12427970311394 0.9999999999999999
  endloop
endfacet
facet normal -0.9914448613738123 0.1305261922200381 0.0
  outer loop
    vertex 54.634826807994585 77.12427970311394 0.0
    vertex 54.655271312221146 77.27957113017547 0.9999999999999999
    vertex 54.655271312221146 77.27957113017547 0.0
  endloop
endfacet
facet normal -0.9238795325112514 0.38268343236517494 0.0
  outer loop
    vertex 54.634826807994585 77.12427970311394 0.9999999999999999
    vertex 54.5748865544918 76.97957113017547 0.0
    vertex 54.5748865544918 76.97957113017547 0.9999999999999999
  endloop
endfacet
facet normal -0.9238795325112514 0.38268343236517494 0.0
  outer loop
    vertex 54.5748865544918 76.97957113017547 0.0
    vertex 54.634826807994585 77.12427970311394 0.9999999999999999
    vertex 54.634826807994585 77.12427970311394 0.0
  endloop
endfacet
facet normal -0.7933533402912651 0.6087614290086817 0.0
  outer loop
    vertex 54.5748865544918 76.97957113017547 0.9999999999999999
    vertex 54.47953538093308 76.85530706146355 0.0
    vertex 54.47953538093308 76.85530706146355 0.9999999999999999
  endloop
endfacet
facet normal -0.7933533402912651 0.6087614290086817 0.0
  outer loop
    vertex 54.47953538093308 76.85530706146355 0.0
    vertex 54.5748865544918 76.97957113017547 0.9999999999999999
    vertex 54.5748865544918 76.97957113017547 0.0
  endloop
endfacet
facet normal -0.6087614290087376 0.7933533402912223 0.0
  outer loop
    vertex 54.35527131222114 76.75995588790481 0.9999999999999999
    vertex 54.47953538093308 76.85530706146355 0.0
    vertex 54.35527131222114 76.75995588790481 0.0
  endloop
endfacet
facet normal -0.6087614290087376 0.7933533402912223 0.0
  outer loop
    vertex 54.47953538093308 76.85530706146355 0.0
    vertex 54.35527131222114 76.75995588790481 0.9999999999999999
    vertex 54.47953538093308 76.85530706146355 0.9999999999999999
  endloop
endfacet
facet normal -0.38268343236508806 0.9238795325112875 0.0
  outer loop
    vertex 54.21056273928266 76.70001563440202 0.9999999999999999
    vertex 54.35527131222114 76.75995588790481 0.0
    vertex 54.21056273928266 76.70001563440202 0.0
  endloop
endfacet
facet normal -0.38268343236508806 0.9238795325112875 0.0
  outer loop
    vertex 54.35527131222114 76.75995588790481 0.0
    vertex 54.21056273928266 76.70001563440202 0.9999999999999999
    vertex 54.35527131222114 76.75995588790481 0.9999999999999999
  endloop
endfacet
facet normal -0.1305261922200381 0.9914448613738123 0.0
  outer loop
    vertex 54.05527131222114 76.67957113017547 0.9999999999999999
    vertex 54.21056273928266 76.70001563440202 0.0
    vertex 54.05527131222114 76.67957113017547 0.0
  endloop
endfacet
facet normal -0.1305261922200381 0.9914448613738123 0.0
  outer loop
    vertex 54.21056273928266 76.70001563440202 0.0
    vertex 54.05527131222114 76.67957113017547 0.9999999999999999
    vertex 54.21056273928266 76.70001563440202 0.9999999999999999
  endloop
endfacet
facet normal 0.1305261922200474 0.9914448613738109 0.0
  outer loop
    vertex 53.899979885159624 76.70001563440202 0.9999999999999999
    vertex 54.05527131222114 76.67957113017547 0.0
    vertex 53.899979885159624 76.70001563440202 0.0
  endloop
endfacet
facet normal 0.1305261922200474 0.9914448613738109 0.0
  outer loop
    vertex 54.05527131222114 76.67957113017547 0.0
    vertex 53.899979885159624 76.70001563440202 0.9999999999999999
    vertex 54.05527131222114 76.67957113017547 0.9999999999999999
  endloop
endfacet
facet normal 0.38268343236511354 0.9238795325112771 0.0
  outer loop
    vertex 53.75527131222115 76.75995588790481 0.9999999999999999
    vertex 53.899979885159624 76.70001563440202 0.0
    vertex 53.75527131222115 76.75995588790481 0.0
  endloop
endfacet
facet normal 0.38268343236511354 0.9238795325112771 0.0
  outer loop
    vertex 53.899979885159624 76.70001563440202 0.0
    vertex 53.75527131222115 76.75995588790481 0.9999999999999999
    vertex 53.899979885159624 76.70001563440202 0.9999999999999999
  endloop
endfacet
facet normal 0.608761429008727 0.7933533402912304 0.0
  outer loop
    vertex 53.631007243509224 76.85530706146353 0.9999999999999999
    vertex 53.75527131222115 76.75995588790481 0.0
    vertex 53.631007243509224 76.85530706146353 0.0
  endloop
endfacet
facet normal 0.608761429008727 0.7933533402912304 0.0
  outer loop
    vertex 53.75527131222115 76.75995588790481 0.0
    vertex 53.631007243509224 76.85530706146353 0.9999999999999999
    vertex 53.75527131222115 76.75995588790481 0.9999999999999999
  endloop
endfacet
facet normal 0.7933533402912223 0.6087614290087375 0.0
  outer loop
    vertex 53.535656069950484 76.97957113017547 0.0
    vertex 53.631007243509224 76.85530706146353 0.9999999999999999
    vertex 53.631007243509224 76.85530706146353 0.0
  endloop
endfacet
facet normal 0.7933533402912223 0.6087614290087375 0.0
  outer loop
    vertex 53.631007243509224 76.85530706146353 0.9999999999999999
    vertex 53.535656069950484 76.97957113017547 0.0
    vertex 53.535656069950484 76.97957113017547 0.9999999999999999
  endloop
endfacet
facet normal 0.9238795325112875 0.38268343236508806 0.0
  outer loop
    vertex 53.4757158164477 77.12427970311396 0.0
    vertex 53.535656069950484 76.97957113017547 0.9999999999999999
    vertex 53.535656069950484 76.97957113017547 0.0
  endloop
endfacet
facet normal 0.9238795325112875 0.38268343236508806 0.0
  outer loop
    vertex 53.535656069950484 76.97957113017547 0.9999999999999999
    vertex 53.4757158164477 77.12427970311396 0.0
    vertex 53.4757158164477 77.12427970311396 0.9999999999999999
  endloop
endfacet
facet normal 0.9914448613738098 0.13052619222005676 0.0
  outer loop
    vertex 53.45527131222115 77.27957113017546 0.0
    vertex 53.4757158164477 77.12427970311396 0.9999999999999999
    vertex 53.4757158164477 77.12427970311396 0.0
  endloop
endfacet
facet normal 0.9914448613738098 0.13052619222005676 0.0
  outer loop
    vertex 53.4757158164477 77.12427970311396 0.9999999999999999
    vertex 53.45527131222115 77.27957113017546 0.0
    vertex 53.45527131222115 77.27957113017546 0.9999999999999999
  endloop
endfacet
facet normal 0.9914448613738134 -0.13052619222002876 0.0
  outer loop
    vertex 53.4757158164477 77.43486255723698 0.0
    vertex 53.45527131222115 77.27957113017546 0.9999999999999999
    vertex 53.45527131222115 77.27957113017546 0.0
  endloop
endfacet
facet normal 0.9914448613738134 -0.13052619222002876 0.0
  outer loop
    vertex 53.45527131222115 77.27957113017546 0.9999999999999999
    vertex 53.4757158164477 77.43486255723698 0.0
    vertex 53.4757158164477 77.43486255723698 0.9999999999999999
  endloop
endfacet
facet normal 0.9238795325112771 -0.38268343236511354 0.0
  outer loop
    vertex 53.535656069950484 77.57957113017547 0.0
    vertex 53.4757158164477 77.43486255723698 0.9999999999999999
    vertex 53.4757158164477 77.43486255723698 0.0
  endloop
endfacet
facet normal 0.9238795325112771 -0.38268343236511354 0.0
  outer loop
    vertex 53.4757158164477 77.43486255723698 0.9999999999999999
    vertex 53.535656069950484 77.57957113017547 0.0
    vertex 53.535656069950484 77.57957113017547 0.9999999999999999
  endloop
endfacet
facet normal 0.7933533402912304 -0.608761429008727 0.0
  outer loop
    vertex 53.63100724350922 77.70383519888739 0.0
    vertex 53.535656069950484 77.57957113017547 0.9999999999999999
    vertex 53.535656069950484 77.57957113017547 0.0
  endloop
endfacet
facet normal 0.7933533402912304 -0.608761429008727 0.0
  outer loop
    vertex 53.535656069950484 77.57957113017547 0.9999999999999999
    vertex 53.63100724350922 77.70383519888739 0.0
    vertex 53.63100724350922 77.70383519888739 0.9999999999999999
  endloop
endfacet
facet normal 0.6087614290087376 -0.7933533402912223 0.0
  outer loop
    vertex 53.75527131222115 77.79918637244613 0.9999999999999999
    vertex 53.63100724350922 77.70383519888739 0.0
    vertex 53.75527131222115 77.79918637244613 0.0
  endloop
endfacet
facet normal 0.6087614290087376 -0.7933533402912223 0.0
  outer loop
    vertex 53.63100724350922 77.70383519888739 0.0
    vertex 53.75527131222115 77.79918637244613 0.9999999999999999
    vertex 53.63100724350922 77.70383519888739 0.9999999999999999
  endloop
endfacet
endsolid Smog_buster_v1_354
