M48
;GenerationSoftware,Autodesk,EAGLE,9.2.2*%
;CreationDate,2019-01-03T22:51:33Z*%
FMAT,2
ICI,OFF
METRIC,TZ,000.000
T6C0.700
T5C0.800
T4C0.813
T3C0.900
T2C1.016
T1C2.000
%
G90
M71
T1
X2032Y54102
X34036Y54102
X34036Y3429
X2032Y3429
T2
X16256Y27940
X18796Y27940
X21336Y27940
X29464Y12700
X29464Y10160
X29464Y7620
X11049Y52832
X8509Y52832
X5969Y52832
X32766Y7620
X32766Y10160
X32766Y12700
X30861Y30607
X30861Y33147
X30861Y35687
X30861Y38227
X30861Y43180
X30861Y45720
X30861Y25273
X30861Y22733
X30861Y20193
X30861Y17653
X17907Y52832
X20447Y52832
X30861Y50800
X30861Y48260
T3
X21463Y23622
X21463Y16002
X25781Y48768
X18161Y48768
X21590Y12827
X17145Y23622
X17145Y16002
X21590Y5207
T4
X25654Y53086
X23114Y53086
X7747Y28067
X10287Y28067
X7747Y6477
X10287Y6477
T5
X2921Y25527
X2921Y7747
X2921Y43307
X2921Y40767
X2921Y38227
X2921Y35687
X2921Y33147
X2921Y30607
X2921Y28067
X25781Y10287
X2921Y22987
X2921Y20447
X2921Y17907
X2921Y15367
X2921Y12827
X2921Y10287
X25781Y7747
X25781Y43307
X25781Y40767
X25781Y38227
X25781Y35687
X25781Y33147
X25781Y30607
X25781Y28067
X25781Y25527
X25781Y22987
X25781Y20447
X25781Y17907
X25781Y15367
X25781Y12827
T6
X17018Y12787
X17018Y7787
M30